# AST/ASF file generated using VICON BodyLanguage
# -----------------------------------------------
:version 1.10
:name VICON
:units
  mass 1.0
  length 0.45
  angle deg
:documentation
   .ast/.asf automatically generated from VICON data using
   VICON BodyBuilder and BodyLanguage model FoxedUp or BRILLIANT.MOD
:root
   order TX TY TZ RX RY RZ
   axis XYZ
   position 0 0 0  
   orientation 0 0 0 
:bonedata
  begin
     id 1 
     name lhipjoint
     direction 0.578396 -0.714046 0.394458 
     length 2.21935 
     axis 0 0 0  XYZ
  end
  begin
     id 2 
     name lfemur
     direction 0.34202 -0.939693 0  
     length 6.39105  
     axis 0 0 20  XYZ
    dof rx ry rz
    limits (-160.0 20.0)
           (-70.0 70.0)
           (-60.0 70.0)
  end
  begin
     id 3 
     name ltibia
     direction 0.34202 -0.939693 0   
     length 6.99037   
     axis 0 0 20   XYZ
    dof rx
    limits (-10.0 170.0)
  end
  begin
     id 4 
     name lfoot
     direction 0.0582372 -0.160005 0.985397   
     length 2.06111   
     axis -90 7.62852e-016 20   XYZ
    dof rx rz
    limits (-45.0 90.0)
           (-70.0 20.0)
  end
  begin
     id 5 
     name ltoes
     direction 1.53556e-011 -4.21875e-011 1   
     length 1.04074   
     axis -90 7.62852e-016 20   XYZ
    dof rx
    limits (-90.0 20.0)
  end
  begin
     id 6 
     name rhipjoint
     direction -0.558179 -0.726269 0.40121   
     length 2.182  
     axis 0 0 0  XYZ 
  end
  begin
     id 7 
     name rfemur
     direction -0.34202 -0.939693 0   
     length 6.51172   
     axis 0 0 -20   XYZ
    dof rx ry rz
    limits (-160.0 20.0)
           (-70.0 70.0)
           (-70.0 60.0)
  end
  begin
     id 8 
     name rtibia
     direction -0.34202 -0.939693 0   
     length 7.02607   
     axis 0 0 -20   XYZ
    dof rx
    limits (-10.0 170.0)
 end
 begin
     id 9 
     name rfoot
     direction -0.0788856 -0.216737 0.973038   
     length 1.96734  
     axis -90 -7.62852e-016 -20   XYZ
    dof rx rz
    limits (-45.0 90.0)
           (-20.0 70.0)
  end
  begin
     id 10 
     name rtoes
     direction -1.53567e-011 -4.21783e-011 1   
     length 0.990825   
     axis -90 -7.62852e-016 -20   XYZ
    dof rx
    limits (-90.0 20.0)
  end
  begin
     id 11 
     name lowerback
     direction 0.00668177 0.999323 -0.0361741   
     length 1.7655   
     axis 0 0 0   XYZ
    dof rx ry rz
    limits (-20.0 45.0)
           (-30.0 30.0)
           (-30.0 30.0)
  end
  begin
     id 12 
     name upperback
     direction -0.00222086 0.99851 0.0545167   
     length 1.74912   
     axis 0 0 0   XYZ
    dof rx ry rz
    limits (-20.0 45.0)
           (-30.0 30.0)
           (-30.0 30.0)
  end
  begin
     id 13 
     name thorax
     direction -0.00733971 0.997496 0.0703443   
     length 1.75715   
     axis 0 0 0   XYZ
    dof rx ry rz
    limits (-20.0 45.0)
           (-30.0 30.0)
           (-30.0 30.0)
  end
  begin
     id 14 
     name lowerneck
     direction 0.0279797 0.994795 0.0979765   
     length 1.46939   
     axis 0 0 0   XYZ
    dof rx ry rz
    limits (-20.0 45.0)
           (-30.0 30.0)
           (-30.0 30.0)
  end
  begin
     id 15 
     name upperneck
     direction 0.00339187 0.976776 -0.214238   
     length 1.48018   
     axis 0 0 0   XYZ
    dof rx ry rz
    limits (-20.0 45.0)
           (-30.0 30.0)
           (-30.0 30.0)
  end
  begin
     id 16
     name head
     direction -0.00263506 0.996603 -0.0823096  
     length 1.4976  
     axis 0 0 0   XYZ
    dof rx ry rz
    limits (-20.0 45.0)
           (-30.0 30.0)
           (-30.0 30.0)
  end
  begin
     id 17 
     name lclavicle
     direction 0.894044 0.44508 -0.0508781  
     length 3.03024  
     axis 0 0 0   XYZ
    dof ry rz
    limits (-20.0 10.0)
           (0.0 20.0)
  end
  begin
     id 18 
     name lhumerus
     direction 1 -4.48961e-011 -2.39475e-018   
     length 4.4661   
     axis 180 -30 -90   XYZ
    dof rx ry rz
    limits (-60.0 90.0)
           (-90.0 90.0)
           (-90.0 90.0)
  end
  begin
     id 19
     name lradius
     direction 1 -4.48961e-011 9.29328e-028   
     length 3.41414   
     axis 180 -30 -90   XYZ
    dof rx
    limits (-10.0 170.0)
  end
  begin
     id 20
     name lwrist
     direction 1 -4.48985e-011 1.53461e-026   
     length 1.70707   
     axis -1.09697e-014 90 90   XYZ
    dof ry
    limits (-180.0 0.0)
 end
  begin
     id 21 
     name lhand
     direction 1 -4.48966e-011 3.06923e-026   
     length 0.328298   
     axis -1.95843e-014 90 90   XYZ
    dof rx rz
    limits (-90.0 90.0)
           (-45.0 45.0)
  end
  begin
     id 22 
     name lfingers
     direction 1 -4.48893e-011 6.13845e-026   
     length 0.264682   
     axis -3.91686e-014 90 90   XYZ
    dof rx
    limits (0.0 90.0)
  end
  begin
     id 23
     name lthumb
     direction 0.707107 -6.34876e-011 0.707107   
     length 0.380032   
     axis -90 45 2.85299e-015   XYZ
    dof rx rz
    limits (-45.0 45.0)
           (-45.0 45.0)
  end
  begin
     id 24 
     name rclavicle
     direction -0.936955 0.347862 -0.0332887   
     length 3.26927  
     axis 0 0 0   XYZ 
    dof ry rz
    limits (-10.0 20.0)
           (-20.0 0.0)
  end
  begin
     id 25 
     name rhumerus
     direction -1 -4.4896e-011 1.78637e-018  
     length 4.40431   
     axis 180 30 90   XYZ
    dof rx ry rz
    limits (-90.0 60.0)
           (-90.0 90.0)
           (-90.0 90.0)
  end
  begin
     id 26 
     name rradius
     direction -1 -4.48955e-011 9.34036e-027   
     length 3.04688   
     axis 180 30 90   XYZ
    dof rx
    limits (-10.0 170.0)
  end
  begin
     id 27 
     name rwrist
     direction -1 -4.49011e-011 1.53461e-026   
     length 1.52344   
     axis -1.09697e-014 -90 -90   XYZ
    dof ry
    limits (-180.0 0.0)
  end
  begin
     id 28
     name rhand
     direction -1 -4.48834e-011 3.06923e-026   
     length 0.500489   
     axis -1.95843e-014 -90 -90   XYZ
    dof rx rz
    limits (-90.0 90.0)
           (-45.0 45.0)
  end
  begin
     id 29
     name rfingers
     direction -1 -4.48967e-011 6.13845e-026   
     length 0.403507   
     axis -3.91686e-014 -90 -90   XYZ
    dof rx
    limits (0.0 90.0)
  end
  begin
     id 30
     name rthumb
     direction -0.707107 -6.34826e-011 0.707107   
     length 0.579358   
     axis -90 -45 -2.85299e-015   XYZ
    dof rx rz
    limits (-45.0 45.0)
           (-45.0 45.0)
  end
:hierarchy
  begin
    root lhipjoint rhipjoint lowerback
    lhipjoint lfemur
    lfemur ltibia
    ltibia lfoot
    lfoot ltoes
    rhipjoint rfemur
    rfemur rtibia
    rtibia rfoot
    rfoot rtoes
    lowerback upperback
    upperback thorax
    thorax lowerneck lclavicle rclavicle
    lowerneck upperneck
    upperneck head
    lclavicle lhumerus
    lhumerus lradius
    lradius lwrist
    lwrist lhand lthumb
    lhand lfingers
    rclavicle rhumerus
    rhumerus rradius
    rradius rwrist
    rwrist rhand rthumb
    rhand rfingers
  end

#!OML:ASF H:\IndianDance\Patient Classification 1\Patient 1\Session 1\dancer.ASF
:FULLY-SPECIFIED
:DEGREES
998
root 3.26288 14.4198 1.89876 179.561 -73.1623 -177.154
lowerback 7.51102 -0.392133 0.596204
upperback -9.56608 -0.887389 -0.945311
thorax -14.822 -0.680757 -1.17363
lowerneck -11.1238 -11.9934 -7.42254
upperneck 7.92483 -14.9124 0.00770729
head 4.70297 -7.54815 0.00291884
rclavicle -2.38542e-015 -9.54166e-015
rhumerus 5.87252 35.9264 -8.98441
rradius 41.7141
rwrist 12.5855
rhand -27.5868 31.1938
rfingers 7.12502
rthumb -0.986873 1.21636
lclavicle -2.38542e-015 -9.54166e-015
lhumerus -8.91174 -19.754 -9.17816
lradius 26.1805
lwrist -16.9083
lhand 4.75274 9.18975
lfingers 7.12502
lthumb 30.1341 -683.247
rfemur -48.0224 -24.5863 15.6969
rtibia 58.2481
rfoot -27.3779 -21.0483
rtoes 1.75193
lfemur -18.5743 31.6315 -18.1806
ltibia 55.159
lfoot -28.7469 17.7493
ltoes 9.32007
999
root 3.27538 14.3992 1.87828 179.615 -73.4474 -177.414
lowerback 7.84032 -0.45927 0.404213
upperback -9.36893 -0.983334 -0.928983
thorax -14.7933 -0.693973 -1.02787
lowerneck -11.118 -12.0636 -7.47673
upperneck 8.46541 -15.0175 0.112148
head 4.88739 -7.60098 0.00990101
rclavicle -2.65378e-014 -2.78299e-015
rhumerus 6.95048 35.3534 -9.15544
rradius 38.7363
rwrist 12.8568
rhand -25.8595 29.5548
rfingers 7.12502
rthumb 0.681465 -0.423903
lclavicle -2.65378e-014 -2.78299e-015
lhumerus -8.61701 -19.6748 -9.34152
lradius 26.2319
lwrist -16.7221
lhand 5.05188 9.27472
lfingers 7.12502
lthumb 30.4195 -683.215
rfemur -48.4306 -24.9989 16.0028
rtibia 62.114
rfoot -27.331 -19.9495
rtoes 1.19159
lfemur -18.5364 31.6141 -18.0072
ltibia 55.5066
lfoot -28.7636 17.5557
ltoes 8.96491
1000
root 3.28753 14.3784 1.85326 179.765 -73.7709 -177.738
lowerback 8.12579 -0.526436 0.177441
upperback -9.18365 -1.09088 -0.935688
thorax -14.7505 -0.711927 -0.885392
lowerneck -11.1155 -12.1277 -7.51143
upperneck 8.98142 -15.119 0.209656
head 5.06304 -7.65132 0.0131576
rclavicle 6.36111e-015 1.03368e-014
rhumerus 7.87471 34.6691 -9.43803
rradius 35.9265
rwrist 12.8688
rhand -24.0201 27.8631
rfingers 7.12502
rthumb 2.45791 -2.10246
lclavicle 6.36111e-015 1.03368e-014
lhumerus -8.2799 -19.548 -9.53797
lradius 26.2773
lwrist -16.5872
lhand 5.39397 9.39405
lfingers 7.12502
lthumb 30.7457 -683.156
rfemur -48.6355 -25.2886 16.2212
rtibia 65.7279
rfoot -27.272 -18.847
rtoes 0.683043
lfemur -18.5469 31.5187 -17.869
ltibia 55.8531
lfoot -28.7886 17.388
ltoes 8.6494
1001
root 3.29893 14.3579 1.82367 180.008 -74.1322 -178.107
lowerback 8.35015 -0.590987 -0.0771991
upperback -9.01081 -1.20507 -0.963932
thorax -14.6831 -0.73308 -0.7497
lowerneck -11.1093 -12.1885 -7.53009
upperneck 9.46737 -15.2204 0.303465
head 5.22765 -7.70076 0.0144322
rclavicle 1.30204e-014 5.96354e-015
rhumerus 8.61619 33.8422 -9.84275
rradius 33.3135
rwrist 12.6654
rhand -22.1256 26.1615
rfingers 7.12502
rthumb 4.28749 -3.77509
lclavicle 1.30204e-014 5.96354e-015
lhumerus -7.8987 -19.3802 -9.75914
lradius 26.3132
lwrist -16.5427
lhand 5.72252 9.49257
lfingers 7.12502
lthumb 31.0589 -683.117
rfemur -48.6343 -25.4523 16.368
rtibia 68.9884
rfoot -27.1881 -17.7087
rtoes 0.15335
lfemur -18.6157 31.354 -17.7664
ltibia 56.1913
lfoot -28.823 17.2397
ltoes 8.39885
1002
root 3.30922 14.338 1.78953 180.333 -74.532 -178.504
lowerback 8.50276 -0.651414 -0.353592
upperback -8.85128 -1.32202 -1.01067
thorax -14.5854 -0.756214 -0.621997
lowerneck -11.099 -12.2469 -7.52955
upperneck 9.92597 -15.322 0.382826
head 5.3808 -7.75012 0.0100537
rclavicle 1.88845e-014 5.96354e-015
rhumerus 9.16162 32.8428 -10.3714
rradius 30.9209
rwrist 12.3293
rhand -20.2133 24.4584
rfingers 7.12502
rthumb 6.13385 -5.43283
lclavicle 1.88845e-014 5.96354e-015
lhumerus -7.4739 -19.1815 -9.99259
lradius 26.3416
lwrist -16.6008
lhand 6.0178 9.55515
lfingers 7.12502
lthumb 31.3403 -683.109
rfemur -48.4163 -25.4781 16.4576
rtibia 71.7819
rfoot -27.1018 -16.5051
rtoes -0.382265
lfemur -18.7473 31.1316 -17.6935
ltibia 56.5177
lfoot -28.8621 17.1066
ltoes 8.19112
